<svg width="29" height="28" viewBox="0 0 29 28" fill="none" xmlns="http://www.w3.org/2000/svg">
<path d="M24.2247 18.3436C25.1242 16.1855 25.3312 13.7971 24.8167 11.514C24.3022 9.23096 23.092 7.16814 21.3563 5.61557C19.6206 4.063 17.4466 3.09875 15.14 2.8584C12.8334 2.61805 10.5102 3.11368 8.49708 4.27561L7.12187 1.84416C9.22577 0.630001 11.6082 -0.00585425 14.0315 4.06172e-05C16.4547 0.00593549 18.8341 0.653374 20.9322 1.87776C27.1567 5.50603 29.5411 13.2749 26.6396 19.7532L28.5 20.8366L22.7261 23.9358L22.4973 17.3371L24.2247 18.3436ZM3.77673 9.65643C2.87723 11.8145 2.67017 14.2029 3.18467 16.486C3.69917 18.769 4.90936 20.8319 6.64509 22.3844C8.38082 23.937 10.5548 24.9012 12.8614 25.1416C15.168 25.382 17.4911 24.8863 19.5043 23.7244L20.8795 26.1558C18.7756 27.37 16.3932 28.0059 13.9699 28C11.5466 27.9941 9.16727 27.3466 7.0692 26.1222C0.844711 22.494 -1.53972 14.7251 1.3618 8.24683L-0.5 7.16479L5.27394 4.06564L5.50268 10.6643L3.77535 9.65783L3.77673 9.65643ZM15.9623 17.9586L12.0377 14L8.11724 17.9586L6.15701 15.9793L12.0391 10.0414L15.9609 14L19.8828 10.0414L21.843 12.0207L15.9609 17.9586H15.9623Z" fill="white"/>
</svg>
