<svg width="17" height="22" viewBox="0 0 17 22" fill="none" xmlns="http://www.w3.org/2000/svg">
<path d="M6.57009 21.3801C6.34009 21.3801 6.1101 21.3401 5.8901 21.2601C5.1401 20.9801 4.66009 20.2801 4.66009 19.4801V13.0301H2.32009C1.56009 13.0301 0.90008 12.6001 0.59008 11.9101C0.28008 11.2201 0.400077 10.4401 0.900077 9.87006L8.47009 1.27006C9.00009 0.670064 9.82009 0.460064 10.5701 0.750064C11.3201 1.03006 11.8001 1.73006 11.8001 2.53006V8.98006H14.1401C14.9001 8.98006 15.5601 9.41007 15.8701 10.1001C16.1801 10.7901 16.0601 11.5701 15.5601 12.1401L7.99008 20.7401C7.62008 21.1601 7.10009 21.3801 6.57009 21.3801ZM9.88009 2.12006C9.79009 2.12006 9.68008 2.15006 9.59008 2.26006L2.02007 10.8701C1.86007 11.0501 1.9201 11.2301 1.9501 11.3001C1.9801 11.3701 2.08009 11.5401 2.32009 11.5401H5.41009C5.82009 11.5401 6.16009 11.8801 6.16009 12.2901V19.4901C6.16009 19.7401 6.3401 19.8401 6.4201 19.8701C6.5001 19.9001 6.70007 19.9501 6.86007 19.7601L14.4301 11.1501C14.5901 10.9701 14.5301 10.7901 14.5001 10.7201C14.4701 10.6501 14.3701 10.4801 14.1301 10.4801H11.0401C10.6301 10.4801 10.2901 10.1401 10.2901 9.73006V2.53006C10.2901 2.28006 10.1101 2.18006 10.0301 2.15006C10.0001 2.13006 9.94009 2.12006 9.88009 2.12006Z" fill="#3A78F2"/>
</svg>
