<svg width="58" height="14" viewBox="0 0 58 14" fill="none" xmlns="http://www.w3.org/2000/svg">
<path fill-rule="evenodd" clip-rule="evenodd" d="M51.5693 6.80685C45.3548 11.4973 36.3474 13.9998 28.5922 13.9998C17.7181 13.9998 7.92867 9.88139 0.522563 3.03162C-0.05931 2.49297 0.462047 1.7589 1.1603 2.17837C9.15293 6.94032 19.0355 9.80512 29.2439 9.80512C36.1286 9.80512 43.7023 8.3465 50.6662 5.31964C51.7182 4.86203 52.598 6.02511 51.5693 6.80685Z" fill="#FF9900"/>
<path fill-rule="evenodd" clip-rule="evenodd" d="M54.1529 3.78003C53.3615 2.74089 48.902 3.28906 46.9004 3.53216C46.2906 3.60843 46.1975 3.06502 46.7468 2.67415C50.2985 0.114421 56.1266 0.853264 56.8062 1.71127C57.4858 2.57405 56.6293 8.55628 53.2917 11.4115C52.7796 11.8501 52.2909 11.6165 52.519 11.035C53.2684 9.11875 54.9489 4.82394 54.1529 3.78003Z" fill="#FF9900"/>
</svg>
