<svg width="108" height="20" viewBox="0 0 108 20" fill="none" xmlns="http://www.w3.org/2000/svg">
<path fill-rule="evenodd" clip-rule="evenodd" d="M62.0403 3.60364V1.11541C62.0403 0.738842 62.3196 0.486206 62.6548 0.486206H73.5335C73.8826 0.486206 74.1619 0.743609 74.1619 1.11541V3.24613C74.1573 3.60364 73.864 4.07078 73.3427 4.80962L67.7055 13.0513C69.8002 12.9988 72.0113 13.3182 73.9106 14.4145C74.3388 14.6624 74.4552 15.0247 74.4878 15.3822V18.0373C74.4878 18.3995 74.0968 18.8238 73.6871 18.6045C70.3402 16.8074 65.8947 16.612 62.1939 18.6236C61.8169 18.8333 61.4212 18.4138 61.4212 18.0516V15.53C61.4212 15.1248 61.4259 14.4336 61.8215 13.8187L68.3525 4.22808H62.6688C62.3196 4.22808 62.0403 3.97544 62.0403 3.60364Z" fill="black"/>
<path fill-rule="evenodd" clip-rule="evenodd" d="M22.3565 19.1289H19.0468C18.7302 19.105 18.4788 18.8619 18.4556 18.5521V1.15835C18.4556 0.81038 18.7395 0.533908 19.0933 0.533908H22.1796C22.5008 0.548199 22.7568 0.800843 22.7801 1.11545V3.38917H22.8406C23.6459 1.19171 25.1588 0.16687 27.1977 0.16687C29.2691 0.16687 30.5632 1.19171 31.4942 3.38917C32.2949 1.19171 34.115 0.16687 36.0654 0.16687C37.4526 0.16687 38.9701 0.753176 39.8965 2.06879C40.9439 3.53217 40.7297 5.65812 40.7297 7.52191L40.7251 18.4997C40.7251 18.8476 40.4411 19.1289 40.0873 19.1289H36.7823C36.4518 19.105 36.1865 18.8333 36.1865 18.4997V9.28083C36.1865 8.54675 36.2516 6.71634 36.0934 6.02039C35.8466 4.85255 35.1065 4.52365 34.1476 4.52365C33.3469 4.52365 32.509 5.07182 32.1692 5.9489C31.8294 6.82597 31.862 8.29412 31.862 9.28083V18.4997C31.862 18.8476 31.578 19.1289 31.2242 19.1289H27.9192C27.584 19.105 27.3233 18.8333 27.3233 18.4997L27.3187 9.28083C27.3187 7.34078 27.6306 4.48551 25.2798 4.48551C22.9011 4.48551 22.9942 7.26927 22.9942 9.28083V18.4997C22.9942 18.8476 22.7102 19.1289 22.3565 19.1289Z" fill="black"/>
<path fill-rule="evenodd" clip-rule="evenodd" d="M83.5277 0.16687C88.4387 0.16687 91.0967 4.48551 91.0967 9.97677C91.0967 15.2821 88.1594 19.4911 83.5277 19.4911C78.7051 19.4911 76.0797 15.1725 76.0797 9.79087C76.0797 4.37588 78.7377 0.16687 83.5277 0.16687ZM83.5556 3.71807C81.1164 3.71807 80.9628 7.1215 80.9628 9.24269C80.9628 11.3686 80.9302 15.9066 83.5277 15.9066C86.0926 15.9066 86.2136 12.2457 86.2136 10.0149C86.2136 8.54675 86.1531 6.7926 85.7202 5.40072C85.3478 4.18998 84.6076 3.71807 83.5556 3.71807Z" fill="black"/>
<path fill-rule="evenodd" clip-rule="evenodd" d="M97.4649 19.1289H94.1691C93.8386 19.105 93.5733 18.8333 93.5733 18.4997L93.5686 1.10115C93.5966 0.781776 93.8712 0.533908 94.2064 0.533908H97.274C97.5626 0.548199 97.8 0.748411 97.8652 1.02011V3.67994H97.9257C98.852 1.30135 100.151 0.16687 102.436 0.16687C103.921 0.16687 105.369 0.715043 106.3 2.21656C107.166 3.60844 107.166 5.9489 107.166 7.63154V18.5807C107.129 18.8858 106.854 19.1289 106.528 19.1289H103.209C102.907 19.105 102.655 18.8762 102.623 18.5807V9.13306C102.623 7.23114 102.837 4.44738 100.551 4.44738C99.7458 4.44738 99.0057 5.00032 98.6379 5.83926C98.1724 6.90224 98.1119 7.96045 98.1119 9.13306V18.4997C98.1072 18.8476 97.8186 19.1289 97.4649 19.1289Z" fill="black"/>
<path fill-rule="evenodd" clip-rule="evenodd" d="M53.3681 10.8204C53.3681 12.1408 53.4007 13.2419 52.749 14.4146C52.223 15.3679 51.3851 15.9542 50.4587 15.9542C49.1879 15.9542 48.4431 14.9627 48.4431 13.4993C48.4431 10.6107 50.9708 10.0864 53.3681 10.0864V10.8204ZM56.7057 19.0812C56.4869 19.2814 56.1704 19.2957 55.9237 19.1622C54.8251 18.2279 54.6249 17.7942 54.0245 16.9028C52.209 18.7999 50.9196 19.3672 48.5688 19.3672C45.7805 19.3672 43.6159 17.6083 43.6159 14.0857C43.6159 11.3353 45.0682 9.46193 47.1444 8.54673C48.9412 7.73638 51.4502 7.59338 53.3681 7.36935V6.93081C53.3681 6.12523 53.4286 5.17189 52.9631 4.47595C52.5628 3.85151 51.7901 3.5941 51.1058 3.5941C49.8443 3.5941 48.7224 4.25668 48.4478 5.62949C48.3919 5.93456 48.1731 6.23487 47.8705 6.24917L44.6633 5.89643C44.3933 5.83446 44.0907 5.61042 44.1698 5.18619C44.9053 1.20122 48.4245 0 51.5713 0C53.1819 0 55.286 0.438539 56.5568 1.68742C58.1674 3.22707 58.0138 5.28152 58.0138 7.51711V12.7986C58.0138 14.386 58.6562 15.0819 59.2613 15.9399C59.4708 16.245 59.5173 16.612 59.2473 16.8408C58.5724 17.4176 57.3714 18.4901 56.7104 19.0907L56.7057 19.0812Z" fill="black"/>
<path fill-rule="evenodd" clip-rule="evenodd" d="M9.97878 10.8204C9.97878 12.1408 10.0114 13.2419 9.35966 14.4145C8.83364 15.3679 8.0004 15.9542 7.0694 15.9542C5.79859 15.9542 5.05845 14.9627 5.05845 13.4993C5.05845 10.6107 7.58611 10.0864 9.97878 10.0864V10.8204ZM13.3164 19.0812C13.0976 19.2814 12.7811 19.2957 12.5344 19.1622C11.4358 18.2279 11.2403 17.7941 10.6351 16.9028C8.81968 18.7999 7.5349 19.3672 5.17947 19.3672C2.39579 19.3672 0.226562 17.6082 0.226562 14.0856C0.226562 11.3352 1.68358 9.46193 3.75505 8.54672C5.55187 7.73638 8.06092 7.59338 9.97878 7.36934V6.9308C9.97878 6.12523 10.0393 5.17188 9.57845 4.47595C9.17346 3.8515 8.40073 3.5941 7.7211 3.5941C6.4596 3.5941 5.33309 4.25668 5.05845 5.62949C5.00258 5.93456 4.7838 6.23486 4.48588 6.24916L1.27394 5.89642C1.00395 5.83446 0.706026 5.61042 0.780506 5.18619C1.52065 1.20122 5.03517 0 8.18195 0C9.79257 0 11.8966 0.438539 13.1674 1.68742C14.7781 3.22707 14.6245 5.28152 14.6245 7.51711V12.7986C14.6245 14.3859 15.2668 15.0819 15.872 15.9399C16.0861 16.245 16.1327 16.612 15.8627 16.8408C15.1877 17.4176 13.9867 18.4901 13.3257 19.0907L13.3164 19.0812Z" fill="black"/>
</svg>
