<svg width="311" height="19" viewBox="0 0 311 19" fill="none" xmlns="http://www.w3.org/2000/svg">
<g opacity="0.5" clip-path="url(#clip0_1_3940)">
<path d="M24.2598 8.61575C23.484 8.61575 22.9338 9.24074 22.9338 10.2001V13.7193H21.7496V7.52494H22.9196V8.28135C23.0639 8.03065 23.2707 7.82425 23.5186 7.68355C23.7664 7.54285 24.0464 7.47296 24.3293 7.48114H24.7547V8.61575H24.2598ZM20.9313 10.6221C20.9313 8.77492 19.6549 7.39352 17.9275 7.39352C17.5194 7.39638 17.1158 7.48229 16.7401 7.64633C16.3643 7.81037 16.0238 8.04929 15.738 8.34935C15.4522 8.64941 15.2269 9.00469 15.075 9.39474C14.9231 9.78479 14.8476 10.2019 14.8529 10.6221C14.8529 12.4679 16.2356 13.8639 18.0396 13.8639C18.5435 13.8737 19.0423 13.7586 19.494 13.5284C19.9456 13.2981 20.3369 12.9594 20.6349 12.5409L19.7754 11.8925C19.5783 12.1759 19.3174 12.4059 19.0151 12.5628C18.7128 12.7197 18.3781 12.7988 18.0396 12.7935C17.5575 12.7912 17.0921 12.6111 16.7279 12.2859C16.3636 11.9607 16.1246 11.5118 16.0541 11.0208H20.9341L20.9313 10.6221ZM16.0796 10.0541C16.2909 9.10931 17.0241 8.46972 17.9133 8.46972C18.8026 8.46972 19.5343 9.10931 19.7329 10.0541H16.0796ZM11.1017 7.39352C10.706 7.39387 10.3142 7.47495 9.94909 7.6321C9.58396 7.78926 9.25269 8.01935 8.97443 8.3091V5.21191H7.79023V13.7193H8.96025V12.9337C9.52706 13.5241 10.2983 13.8587 11.1046 13.8639C11.5228 13.873 11.9386 13.7961 12.3276 13.6376C12.7166 13.4792 13.0709 13.2423 13.3698 12.941C13.6688 12.6397 13.9063 12.2799 14.0684 11.8829C14.2305 11.4858 14.3141 11.0594 14.3141 10.6287C14.3141 10.198 14.2305 9.77157 14.0684 9.37451C13.9063 8.97745 13.6688 8.61771 13.3698 8.31639C13.0709 8.01507 12.7166 7.77823 12.3276 7.61976C11.9386 7.46129 11.5228 7.38437 11.1046 7.39352H11.1017ZM11.0166 12.7745C10.6039 12.7766 10.1998 12.6523 9.85577 12.4175C9.51171 12.1827 9.24314 11.8479 9.08415 11.4557C8.92515 11.0635 8.88289 10.6315 8.96273 10.2145C9.04256 9.79757 9.2409 9.4144 9.53257 9.11367C9.82424 8.81295 10.1961 8.6082 10.601 8.52543C11.0058 8.44265 11.4255 8.48558 11.8066 8.64875C12.1877 8.81193 12.5132 9.088 12.7417 9.44194C12.9702 9.79587 13.0914 10.2117 13.09 10.6367C13.0904 10.9171 13.037 11.1947 12.9329 11.4537C12.8288 11.7128 12.6761 11.9481 12.4834 12.1461C12.2908 12.3442 12.062 12.5012 11.8103 12.608C11.5586 12.7149 11.2889 12.7695 11.0166 12.7687V12.7745ZM3.42927 12.7161C4.57233 12.7161 5.46013 11.8137 5.46013 10.4615V5.21191H6.68687V13.7193H5.47431V12.9147C5.19101 13.2162 4.85127 13.4553 4.47563 13.6177C4.09999 13.7801 3.69626 13.8624 3.28886 13.8595C1.52604 13.8595 0.168823 12.5365 0.168823 10.5301V5.21191H1.41826V10.4688C1.41826 11.8283 2.26918 12.7161 3.42927 12.7161Z" fill="#60658C"/>
<path d="M27.7003 5.21191H33.4965V6.67216H29.266V8.74571H33.3788V10.1563H29.266V12.2649H33.4965V13.7252H27.7003V5.21191ZM49.5037 13.8785C51.2807 13.8785 52.282 13.0023 52.282 11.7991C52.282 10.9419 51.6892 10.3023 50.4483 10.0249L49.1364 9.7489C48.3748 9.60288 48.1352 9.45685 48.1352 9.1648C48.1352 8.7866 48.5025 8.55442 49.179 8.55442C49.9122 8.55442 50.4553 8.75739 50.5972 9.45539H52.1345C52.0508 8.14117 51.1332 7.27378 49.2726 7.27378C47.6643 7.27378 46.5354 7.95718 46.5354 9.28162C46.5354 10.1972 47.1566 10.793 48.4968 11.0836L49.9632 11.4326C50.5419 11.5494 50.6964 11.71 50.6964 11.9568C50.6964 12.3496 50.2596 12.5964 49.5534 12.5964C48.6656 12.5964 48.1579 12.3934 47.9607 11.6954H46.4149C46.6404 13.0067 47.5849 13.8785 49.5037 13.8785ZM45.9682 13.7193H44.3046C43.2608 13.7193 42.6822 13.0505 42.6822 12.2065V8.86253H41.5122V7.43733H42.6879V5.64853H44.2337V7.43733H45.9682V8.86253H44.2337V11.7991C44.2337 12.1335 44.4592 12.2941 44.8123 12.2941H45.9682V13.7193ZM39.3026 7.44025V8.00683C38.7583 7.5331 38.0681 7.27429 37.3554 7.2767C36.9288 7.26746 36.5046 7.34601 36.1078 7.50775C35.711 7.66948 35.3495 7.91114 35.0446 8.21858C34.7397 8.52601 34.4974 8.89302 34.332 9.2981C34.1666 9.70318 34.0814 10.1382 34.0814 10.5776C34.0814 11.017 34.1666 11.452 34.332 11.8571C34.4974 12.2622 34.7397 12.6292 35.0446 12.9366C35.3495 13.244 35.711 13.4857 36.1078 13.6474C36.5046 13.8092 36.9288 13.8877 37.3554 13.8785C38.0682 13.8817 38.7587 13.6228 39.3026 13.1484V13.7164H40.8442V7.43733L39.3026 7.44025ZM37.4831 12.5C37.1133 12.5044 36.7506 12.3954 36.4411 12.187C36.1316 11.9786 35.8892 11.6801 35.7449 11.3296C35.6005 10.979 35.5606 10.5922 35.6302 10.2182C35.6999 9.84427 35.8759 9.50008 36.136 9.22939C36.3961 8.95871 36.7285 8.77375 37.0909 8.69803C37.4534 8.62231 37.8295 8.65925 38.1715 8.80414C38.5134 8.94904 38.8059 9.19535 39.0116 9.51178C39.2173 9.82821 39.327 10.2005 39.3267 10.5812C39.329 10.8322 39.2829 11.0812 39.191 11.3138C39.0992 11.5463 38.9635 11.7578 38.7918 11.9359C38.6201 12.1141 38.4157 12.2554 38.1906 12.3518C37.9655 12.4481 37.724 12.4975 37.4802 12.4971L37.4831 12.5Z" fill="#60658C"/>
</g>
<g clip-path="url(#clip1_1_3940)">
<path d="M109.248 13.0046L109.854 11.596C110.509 12.0851 111.38 12.3394 112.241 12.3394C112.877 12.3394 113.278 12.0949 113.278 11.7232C113.268 10.6863 109.473 11.4982 109.443 8.89624C109.433 7.57571 110.607 6.55841 112.27 6.55841C113.258 6.55841 114.246 6.80295 114.95 7.36051L114.383 8.79842C113.737 8.38759 112.935 8.09414 112.172 8.09414C111.654 8.09414 111.312 8.33868 111.312 8.65169C111.321 9.66899 115.146 9.11143 115.185 11.596C115.185 12.9459 114.041 13.8947 112.397 13.8947C111.194 13.8947 110.089 13.611 109.248 13.0046ZM132.518 11.0873C132.215 11.6156 131.648 11.9775 130.992 11.9775C130.024 11.9775 129.241 11.1949 129.241 10.2265C129.241 9.25816 130.024 8.47562 130.992 8.47562C131.648 8.47562 132.215 8.83755 132.518 9.36576L134.191 8.4365C133.565 7.32138 132.362 6.55841 130.992 6.55841C128.967 6.55841 127.324 8.20174 127.324 10.2265C127.324 12.2514 128.967 13.8947 130.992 13.8947C132.372 13.8947 133.565 13.1415 134.191 12.0166L132.518 11.0873ZM116.026 3.5163H118.12V13.7577H116.026V3.5163ZM135.013 3.5163V13.7577H137.106V10.6863L139.59 13.7577H142.271L139.111 10.1092L142.036 6.70513H139.473L137.106 9.53205V3.5163H135.013ZM124.341 11.1069C124.038 11.6058 123.411 11.9775 122.707 11.9775C121.739 11.9775 120.956 11.1949 120.956 10.2265C120.956 9.25816 121.739 8.47562 122.707 8.47562C123.411 8.47562 124.038 8.86689 124.341 9.37554V11.1069ZM124.341 6.70513V7.53658C123.998 6.95946 123.147 6.55841 122.257 6.55841C120.418 6.55841 118.971 8.18217 118.971 10.2168C118.971 12.2514 120.418 13.8947 122.257 13.8947C123.147 13.8947 123.998 13.4936 124.341 12.9165V13.748H126.434V6.70513H124.341Z" fill="#303E49"/>
<path d="M96.3064 11.0971C96.3064 11.8112 95.7292 12.3883 95.0152 12.3883C94.3011 12.3883 93.724 11.8112 93.724 11.0971C93.724 10.383 94.3011 9.80591 95.0152 9.80591H96.3064V11.0971ZM96.952 11.0971C96.952 10.383 97.5291 9.80591 98.2431 9.80591C98.9572 9.80591 99.5343 10.383 99.5343 11.0971V14.3251C99.5343 15.0391 98.9572 15.6162 98.2431 15.6162C97.5291 15.6162 96.952 15.0391 96.952 14.3251V11.0971Z" fill="#303E49"/>
<path d="M98.2432 5.91282C97.5291 5.91282 96.952 5.33569 96.952 4.62163C96.952 3.90757 97.5291 3.33044 98.2432 3.33044C98.9572 3.33044 99.5344 3.90757 99.5344 4.62163V5.91282H98.2432ZM98.2432 6.56819C98.9572 6.56819 99.5344 7.14531 99.5344 7.85938C99.5344 8.57344 98.9572 9.15056 98.2432 9.15056H95.0054C94.2914 9.15056 93.7142 8.57344 93.7142 7.85938C93.7142 7.14531 94.2914 6.56819 95.0054 6.56819H98.2432Z" fill="#303E49"/>
<path d="M103.418 7.85938C103.418 7.14531 103.995 6.56819 104.709 6.56819C105.423 6.56819 106 7.14531 106 7.85938C106 8.57344 105.423 9.15056 104.709 9.15056H103.418V7.85938ZM102.772 7.85938C102.772 8.57344 102.195 9.15056 101.481 9.15056C100.767 9.15056 100.19 8.57344 100.19 7.85938V4.62163C100.19 3.90757 100.767 3.33044 101.481 3.33044C102.195 3.33044 102.772 3.90757 102.772 4.62163V7.85938Z" fill="#303E49"/>
<path d="M101.481 13.0339C102.195 13.0339 102.772 13.611 102.772 14.3251C102.772 15.0391 102.195 15.6162 101.481 15.6162C100.767 15.6162 100.19 15.0391 100.19 14.3251V13.0339H101.481ZM101.481 12.3883C100.767 12.3883 100.19 11.8112 100.19 11.0971C100.19 10.383 100.767 9.80591 101.481 9.80591H104.719C105.433 9.80591 106.01 10.383 106.01 11.0971C106.01 11.8112 105.433 12.3883 104.719 12.3883H101.481Z" fill="#303E49"/>
</g>
<g opacity="0.5" clip-path="url(#clip2_1_3940)">
<path d="M200.867 10.2726L200.577 11.0943H200.553C200.504 10.909 200.416 10.6271 200.271 10.2887L198.714 6.38161H197.19V12.6088H198.198V8.76615C198.198 8.52447 198.198 8.25057 198.19 7.91223C198.182 7.74305 198.166 7.61416 198.158 7.51749H198.182C198.23 7.75916 198.287 7.93639 198.327 8.04918L200.198 12.5927H200.908L202.763 8.0089C202.803 7.90417 202.843 7.69472 202.884 7.51749H202.908C202.884 7.97667 202.867 8.38752 202.859 8.63726V12.5846H203.932V6.3655H202.464L200.867 10.2726ZM204.948 8.12168H205.997V12.5846H204.948V8.12168ZM205.481 6.2366C205.303 6.2366 205.158 6.30105 205.037 6.41383C204.916 6.52661 204.851 6.67162 204.851 6.84885C204.851 7.01802 204.916 7.16303 205.037 7.27581C205.158 7.38859 205.303 7.44498 205.481 7.44498C205.658 7.44498 205.811 7.38054 205.924 7.27581C206.045 7.16303 206.11 7.01802 206.11 6.84885C206.11 6.67968 206.045 6.53467 205.924 6.41383C205.819 6.30105 205.666 6.2366 205.481 6.2366ZM209.715 8.0814C209.521 8.04112 209.32 8.01695 209.126 8.01695C208.65 8.01695 208.215 8.12168 207.852 8.33113C207.489 8.54059 207.198 8.8306 207.013 9.19311C206.819 9.56368 206.723 9.99064 206.723 10.4821C206.723 10.909 206.819 11.2876 207.005 11.634C207.19 11.9724 207.448 12.2463 207.795 12.4316C208.126 12.6169 208.513 12.7135 208.949 12.7135C209.449 12.7135 209.876 12.6088 210.215 12.4155L210.223 12.4074V11.4407L210.182 11.4729C210.029 11.5857 209.852 11.6824 209.674 11.7388C209.489 11.8032 209.32 11.8354 209.174 11.8354C208.755 11.8354 208.424 11.7146 208.19 11.4488C207.948 11.191 207.828 10.8365 207.828 10.3934C207.828 9.93425 207.948 9.57174 208.198 9.30589C208.449 9.04005 208.779 8.9031 209.182 8.9031C209.521 8.9031 209.868 9.01588 210.182 9.24145L210.223 9.27367V8.25057L210.215 8.24252C210.078 8.18613 209.924 8.12168 209.715 8.0814ZM213.175 8.04918C212.917 8.04918 212.675 8.12973 212.465 8.29891C212.287 8.44391 212.167 8.65337 212.062 8.9031H212.054V8.12168H211.005V12.5846H212.054V10.3048C212.054 9.91814 212.134 9.59591 212.312 9.36229C212.489 9.12061 212.715 8.99977 212.989 8.99977C213.086 8.99977 213.183 9.02394 213.304 9.04005C213.417 9.07227 213.497 9.1045 213.554 9.14478L213.594 9.177V8.12973L213.57 8.12168C213.497 8.07334 213.352 8.04918 213.175 8.04918ZM216.03 8.02501C215.296 8.02501 214.707 8.24252 214.296 8.66948C213.876 9.09644 213.675 9.68452 213.675 10.4257C213.675 11.1185 213.884 11.6824 214.288 12.0932C214.691 12.496 215.239 12.7055 215.925 12.7055C216.643 12.7055 217.215 12.488 217.627 12.053C218.046 11.6179 218.248 11.0379 218.248 10.3209C218.248 9.61202 218.054 9.04811 217.659 8.63726C217.28 8.22641 216.723 8.02501 216.03 8.02501ZM216.868 11.4568C216.675 11.7065 216.368 11.8274 215.989 11.8274C215.61 11.8274 215.304 11.7065 215.086 11.4407C214.868 11.191 214.763 10.8285 214.763 10.3693C214.763 9.89397 214.876 9.53146 215.086 9.27367C215.304 9.01588 215.602 8.88699 215.981 8.88699C216.352 8.88699 216.643 9.00783 216.852 9.25756C217.062 9.50729 217.175 9.86981 217.175 10.3451C217.159 10.8285 217.07 11.2071 216.868 11.4568ZM220.586 9.97453C220.256 9.83758 220.046 9.73286 219.949 9.64424C219.869 9.56368 219.828 9.4509 219.828 9.30589C219.828 9.18506 219.877 9.06422 219.998 8.98366C220.119 8.9031 220.256 8.86282 220.457 8.86282C220.635 8.86282 220.82 8.89504 220.998 8.94338C221.175 8.99171 221.336 9.06422 221.466 9.16089L221.506 9.19311V8.21029L221.482 8.20224C221.361 8.1539 221.199 8.10557 221.006 8.06529C220.812 8.03306 220.635 8.01695 220.49 8.01695C219.99 8.01695 219.578 8.13779 219.256 8.40363C218.933 8.65337 218.78 8.99171 218.78 9.38645C218.78 9.59591 218.812 9.78119 218.885 9.93425C218.957 10.0873 219.062 10.2323 219.207 10.3532C219.352 10.4659 219.562 10.5948 219.852 10.7157C220.094 10.8204 220.28 10.901 220.393 10.9654C220.506 11.0299 220.578 11.1024 220.635 11.1587C220.675 11.2232 220.699 11.3038 220.699 11.4085C220.699 11.7065 220.474 11.8516 220.014 11.8516C219.836 11.8516 219.651 11.8193 219.433 11.7468C219.215 11.6743 219.014 11.5696 218.844 11.4488L218.804 11.4165V12.4396L218.828 12.4477C218.981 12.5202 219.167 12.5685 219.393 12.6249C219.619 12.6652 219.82 12.6974 219.998 12.6974C220.538 12.6974 220.982 12.5766 221.296 12.3107C221.619 12.053 221.788 11.7227 221.788 11.2957C221.788 10.9976 221.707 10.7318 221.53 10.5304C221.296 10.337 221.006 10.1357 220.586 9.97453ZM224.554 8.02501C223.821 8.02501 223.232 8.24252 222.82 8.66948C222.409 9.09644 222.199 9.68452 222.199 10.4257C222.199 11.1185 222.409 11.6824 222.812 12.0932C223.216 12.496 223.764 12.7055 224.45 12.7055C225.167 12.7055 225.74 12.488 226.151 12.053C226.571 11.6179 226.772 11.0379 226.772 10.3209C226.772 9.61202 226.579 9.04811 226.184 8.63726C225.805 8.22641 225.248 8.02501 224.554 8.02501ZM225.385 11.4568C225.192 11.7065 224.885 11.8274 224.506 11.8274C224.119 11.8274 223.821 11.7065 223.603 11.4407C223.385 11.191 223.28 10.8285 223.28 10.3693C223.28 9.89397 223.393 9.53146 223.603 9.27367C223.821 9.01588 224.119 8.88699 224.498 8.88699C224.861 8.88699 225.159 9.00783 225.369 9.25756C225.579 9.50729 225.692 9.86981 225.692 10.3451C225.692 10.8285 225.587 11.2071 225.385 11.4568ZM232.378 8.98366V8.12168H231.321V6.80051L231.289 6.80857L230.289 7.10664L230.264 7.11469V8.12168H228.684V7.55777C228.684 7.29998 228.748 7.09858 228.861 6.96969C228.974 6.84079 229.143 6.77635 229.353 6.77635C229.498 6.77635 229.652 6.80857 229.821 6.88107L229.861 6.90524V5.99493L229.837 5.98687C229.692 5.93853 229.498 5.90631 229.248 5.90631C228.934 5.90631 228.66 5.97881 228.41 6.09965C228.16 6.2366 227.974 6.42189 227.837 6.67162C227.7 6.9133 227.627 7.1872 227.627 7.50138V8.12168H226.893V8.9756H227.627V12.5846H228.684V8.98366H230.264V11.2796C230.264 12.2221 230.708 12.6974 231.595 12.6974C231.74 12.6974 231.894 12.6733 232.039 12.6491C232.192 12.6169 232.305 12.5766 232.369 12.5444L232.378 12.5363V11.6743L232.337 11.7065C232.273 11.7468 232.216 11.7791 232.119 11.8032C232.039 11.8274 231.966 11.8354 231.91 11.8354C231.7 11.8354 231.555 11.7871 231.45 11.6663C231.353 11.5535 231.305 11.3682 231.305 11.0943V8.98366H232.378Z" fill="#60658C"/>
<path d="M183.673 4.28705H188.617V9.2253H183.673V4.28705Z" fill="#60658C"/>
<path d="M189.133 4.28705H194.077V9.2253H189.133V4.28705Z" fill="#60658C"/>
<path d="M183.673 9.74091H188.617V14.6792H183.673V9.74091Z" fill="#60658C"/>
<path d="M189.133 9.74091H194.077V14.6792H189.133V9.74091Z" fill="#60658C"/>
</g>
<g clip-path="url(#clip3_1_3940)">
<path d="M307.845 0.0306396C309.663 0.0306396 310.955 1.3972 310.955 3.07186C310.955 4.74651 309.663 6.11307 307.845 6.11307C306.011 6.11307 304.743 4.74651 304.743 3.07186C304.743 1.3972 306.011 0.0306396 307.845 0.0306396Z" fill="#B0B2C6"/>
<path d="M273.749 8.25071H274.846V13.9513H273.749V8.25071ZM281.512 13.1877C281.114 13.6018 280.496 14.0648 279.245 14.0648C277.563 14.0648 276.263 12.7902 276.263 11.0849C276.263 9.29012 277.709 8.13641 279.294 8.13641C280.407 8.13641 281.139 8.66482 281.496 8.98948L280.83 9.7854C280.595 9.55018 280.066 9.11951 279.31 9.11951C278.246 9.11951 277.441 9.99576 277.441 11.0849C277.441 12.14 278.18 13.066 279.35 13.066C280 13.066 280.553 12.7496 280.862 12.4572L281.512 13.1877ZM286.547 9.17666H285.124V13.9513H284.027V9.17666H282.605V8.25071H286.547V9.17666ZM293.613 11.2472H291.606V13.9513H290.508V8.25071H291.606V10.3213H293.613V8.25071H294.711V13.9513H293.613V11.2472ZM296.412 8.25071H297.51V11.8973C297.51 12.5873 297.989 13.0991 298.607 13.0991C299.225 13.0991 299.713 12.5873 299.713 11.8973V8.25071H300.819V11.9454C300.819 13.066 300.071 14.0648 298.6 14.0648C297.137 14.0648 296.414 13.066 296.414 11.9454V8.25071H296.412ZM302.511 8.29957C302.893 8.23414 303.332 8.17782 303.763 8.17782C304.868 8.17782 305.94 8.51077 305.94 9.72908C305.94 10.2649 305.607 10.6716 305.42 10.8016C305.851 10.9225 306.42 11.4269 306.42 12.2543C306.42 12.4332 306.395 12.6121 306.322 12.7662C306.119 13.6184 305.257 14.0333 303.794 14.0333C303.404 14.0333 302.981 14.0002 302.51 13.9439V8.29957H302.511ZM303.616 10.4836H304.388C304.624 10.4107 304.851 10.1672 304.851 9.83343C304.851 9.27356 304.405 9.12779 303.998 9.12779C303.859 9.12779 303.722 9.14353 303.615 9.16009V10.4836H303.616ZM303.616 13.0088C303.762 13.0171 303.917 13.0337 304.063 13.0337C304.721 13.0337 305.291 12.7985 305.291 12.1731C305.291 11.8154 305.022 11.4095 304.592 11.3284H303.616V13.0088ZM274.667 18.7003V18.9024H273.745V17.2874H274.638V17.492H273.986V17.8895H274.511V18.0941H273.986V18.6987H274.667V18.7003ZM275.184 18.9032V17.2816L275.223 17.27L275.869 17.9069L276.514 17.27L276.553 17.2816V18.9032H276.313V17.7852L275.881 18.22H275.855L275.422 17.7852V18.9032H275.184ZM277.368 18.4336V18.9032H277.126V17.2998C277.722 17.1731 278.123 17.424 278.123 17.8357C278.123 18.2266 277.785 18.4568 277.368 18.4336ZM277.368 18.2175C277.699 18.2448 277.874 18.0676 277.874 17.8357C277.874 17.6236 277.693 17.4448 277.368 17.4953V18.2175ZM279.341 17.2559C279.834 17.2559 280.191 17.6286 280.191 18.0974C280.191 18.5645 279.835 18.9347 279.341 18.9347C278.849 18.9347 278.494 18.5645 278.494 18.0974C278.494 17.6286 278.848 17.2559 279.341 17.2559ZM279.341 18.7194C279.657 18.7194 279.931 18.4709 279.931 18.0982C279.931 17.7255 279.657 17.4704 279.341 17.4704C279.024 17.4704 278.754 17.7255 278.754 18.0982C278.754 18.4709 279.023 18.7194 279.341 18.7194ZM282.601 17.2882L281.975 18.9215H281.94L281.511 17.7992L281.083 18.9215H281.048L280.435 17.2882H280.7L281.08 18.3442L281.498 17.27H281.533L281.954 18.3583L282.352 17.289H282.601V17.2882ZM283.92 18.7003V18.9024H282.997V17.2874H283.89V17.492H283.239V17.8895H283.763V18.0941H283.239V18.6987H283.92V18.7003ZM285.157 18.2796L285.606 18.9032H285.3L284.934 18.3649C284.856 18.3806 284.775 18.3856 284.679 18.3765V18.9032H284.437V17.2998C285.065 17.1756 285.422 17.4125 285.422 17.8125C285.421 17.9872 285.336 18.1694 285.157 18.2796ZM284.678 18.1603C284.986 18.1951 285.173 18.0411 285.173 17.815C285.173 17.6079 285.004 17.4448 284.678 17.4978V18.1603ZM286.006 17.2882H286.248V18.9032H286.006V17.2882ZM287.992 17.2882V18.9032H287.758V18.2084L287.056 17.709V18.9024H286.821V17.2832L286.854 17.2692L287.758 17.9201V17.2874H287.992V17.2882ZM289.475 18.1487H289.973V18.6821C289.763 18.8842 289.547 18.9347 289.328 18.9347C288.801 18.9347 288.455 18.5579 288.455 18.0932C288.455 17.6029 288.849 17.2559 289.302 17.2559C289.618 17.2559 289.802 17.3843 289.921 17.4928C289.873 17.5499 289.82 17.6054 289.771 17.6626C289.674 17.5748 289.532 17.4696 289.311 17.4696C288.982 17.4696 288.719 17.7413 288.719 18.0883C288.719 18.456 288.972 18.721 289.336 18.721C289.488 18.721 289.651 18.6589 289.734 18.5902V18.3483H289.474V18.1487H289.475ZM291.234 17.2882H291.476V18.9032H291.234V17.2882ZM293.221 17.2882V18.9032H292.987V18.2084L292.284 17.709V18.9024H292.05V17.2832L292.082 17.2692L292.987 17.9201V17.2874H293.221V17.2882ZM294.966 17.2882V18.9032H294.731V18.2084L294.029 17.709V18.9024H293.795V17.2832L293.827 17.2692L294.731 17.9201V17.2874H294.966V17.2882ZM296.276 17.2559C296.769 17.2559 297.126 17.6286 297.126 18.0974C297.126 18.5645 296.77 18.9347 296.276 18.9347C295.784 18.9347 295.429 18.5645 295.429 18.0974C295.429 17.6286 295.783 17.2559 296.276 17.2559ZM296.276 18.7194C296.592 18.7194 296.866 18.4709 296.866 18.0982C296.866 17.7255 296.592 17.4704 296.276 17.4704C295.959 17.4704 295.69 17.7255 295.69 18.0982C295.69 18.4709 295.959 18.7194 296.276 18.7194ZM298.827 17.2882L298.113 18.9215H298.081L297.372 17.2882H297.646L298.102 18.3922L298.572 17.2882H298.827ZM298.802 18.9032L299.555 17.27H299.587L300.331 18.9032H300.064L299.919 18.5744H299.217L299.071 18.9032H298.802ZM299.301 18.374H299.831L299.568 17.7595L299.301 18.374ZM301.542 17.4928H301.125V18.9024H300.883V17.4928H300.471V17.2882H301.541V17.4928H301.542ZM301.988 17.2882H302.23V18.9032H301.988V17.2882ZM303.54 17.2559C304.032 17.2559 304.39 17.6286 304.39 18.0974C304.39 18.5645 304.033 18.9347 303.54 18.9347C303.048 18.9347 302.693 18.5645 302.693 18.0974C302.693 17.6286 303.047 17.2559 303.54 17.2559ZM303.54 18.7194C303.856 18.7194 304.129 18.4709 304.129 18.0982C304.129 17.7255 303.856 17.4704 303.54 17.4704C303.223 17.4704 302.953 17.7255 302.953 18.0982C302.953 18.4709 303.222 18.7194 303.54 18.7194ZM306.026 17.2882V18.9032H305.791V18.2084L305.089 17.709V18.9024H304.855V17.2832L304.887 17.2692L305.791 17.9201V17.2874H306.026V17.2882Z" fill="#B0B2C6"/>
</g>
<defs>
<clipPath id="clip0_1_3940">
<rect width="52.3316" height="8.9075" fill="white" transform="translate(0 5.02936)"/>
</clipPath>
<clipPath id="clip1_1_3940">
<rect width="48.7129" height="12.4228" fill="white" transform="translate(93.6458 3.27173)"/>
</clipPath>
<clipPath id="clip2_1_3940">
<rect width="48.7129" height="10.3921" fill="white" transform="translate(183.673 4.28705)"/>
</clipPath>
<clipPath id="clip3_1_3940">
<rect width="37.3002" height="18.9662" fill="white" transform="translate(273.7)"/>
</clipPath>
</defs>
</svg>
