<svg width="29" height="26" viewBox="0 0 29 26" fill="none" xmlns="http://www.w3.org/2000/svg">
<path fill-rule="evenodd" clip-rule="evenodd" d="M3.125 2.0625C3.125 1.7144 2.98672 1.38056 2.74058 1.13442C2.49444 0.888281 2.1606 0.75 1.8125 0.75C1.4644 0.75 1.13056 0.888281 0.884422 1.13442C0.638281 1.38056 0.5 1.7144 0.5 2.0625L0.5 23.9375C0.5 24.662 1.088 25.25 1.8125 25.25H27.1875C27.5356 25.25 27.8694 25.1117 28.1156 24.8656C28.3617 24.6194 28.5 24.2856 28.5 23.9375C28.5 23.5894 28.3617 23.2556 28.1156 23.0094C27.8694 22.7633 27.5356 22.625 27.1875 22.625H3.125V2.0625ZM28.115 6.49C28.3468 6.24119 28.4731 5.91211 28.4671 5.57209C28.4611 5.23206 28.3233 4.90763 28.0828 4.66716C27.8424 4.42669 27.5179 4.28894 27.1779 4.28294C26.8379 4.27694 26.5088 4.40316 26.26 4.635L18 12.895L13.6775 8.5725C13.4314 8.32671 13.0978 8.18865 12.75 8.18865C12.4022 8.18865 12.0686 8.32671 11.8225 8.5725L6.135 14.26C5.90316 14.5088 5.77694 14.8379 5.78294 15.1779C5.78894 15.5179 5.92669 15.8424 6.16716 16.0828C6.40763 16.3233 6.73206 16.4611 7.07208 16.4671C7.41211 16.4731 7.74119 16.3468 7.99 16.115L12.75 11.355L17.0725 15.6775C17.3186 15.9233 17.6522 16.0613 18 16.0613C18.3478 16.0613 18.6814 15.9233 18.9275 15.6775L28.115 6.49Z" fill="#303E49"/>
</svg>
